<svg width="1769" height="354" viewBox="0 0 1769 354" fill="none" xmlns="http://www.w3.org/2000/svg">
<g clip-path="url(#clip0_14_4)">
<path d="M255.96 75.6H338.856V124.704H325.128V217.896H338.856V267H255.96V217.896H269.688V124.704H255.96V75.6ZM460.23 115.464V267H416.406L390.534 221.592V267H346.71V115.464H390.27L412.71 163.512V115.464H460.23ZM578.461 115.464V162.984H548.101V267H498.469V162.984H467.845V115.464H578.461ZM696.079 220.8V267H584.671V115.464H696.079V161.664H634.303V171.96H686.047V211.032H634.303V220.8H696.079ZM838.924 267H785.596C777.852 255.912 771.868 247.728 767.644 242.448C763.42 236.992 760.34 233.384 758.404 231.624C756.468 229.688 755.324 229.072 754.972 229.776C754.62 230.304 754.444 230.92 754.444 231.624V267H704.812V115.464H765.532C772.748 115.464 779.788 117.048 786.652 120.216C793.516 123.384 799.412 127.52 804.34 132.624C809.972 138.08 814.196 144.328 817.012 151.368C820.004 158.232 821.5 165.272 821.5 172.488C821.5 179.88 820.004 187.184 817.012 194.4C814.196 201.616 809.972 208.128 804.34 213.936L838.924 267ZM773.452 171.96C773.452 168.792 772.308 166.064 770.02 163.776C767.732 161.488 764.916 160.344 761.572 160.344H753.916V183.576H761.572C764.916 183.576 767.732 182.432 770.02 180.144C772.308 177.856 773.452 175.128 773.452 171.96ZM945.658 115.464L994.498 267H944.338L939.586 249.576H897.61L892.858 267H842.698L891.538 115.464H945.658ZM926.914 206.808L918.73 174.336L910.282 206.808H926.914ZM1136.56 234C1134.62 236.64 1132.33 239.456 1129.69 242.448C1127.05 245.264 1125.03 247.288 1123.62 248.52C1115.7 254.856 1106.9 259.784 1097.22 263.304C1087.72 266.648 1077.95 268.32 1067.92 268.32C1056.83 268.32 1045.83 266.12 1034.92 261.72C1024.18 257.144 1014.68 250.808 1006.41 242.712C999.367 235.32 993.999 227.224 990.303 218.424C986.783 209.448 985.023 200.296 985.023 190.968C985.023 180.408 987.311 170.2 991.887 160.344C996.463 150.312 1003.24 141.512 1012.21 133.944C1020.31 127.432 1029.02 122.504 1038.35 119.16C1047.85 115.64 1057.53 113.88 1067.39 113.88C1078.83 113.88 1090.09 116.256 1101.18 121.008C1112.45 125.76 1122.57 132.8 1131.54 142.128L1094.05 173.28C1090.01 169.232 1085.69 166.24 1081.12 164.304C1076.54 162.192 1071.97 161.136 1067.39 161.136C1059.65 161.136 1052.43 163.776 1045.74 169.056C1042.4 171.872 1039.85 175.216 1038.09 179.088C1036.33 182.96 1035.45 186.92 1035.45 190.968C1035.45 194.488 1036.06 198.008 1037.29 201.528C1038.7 205.048 1040.9 208.304 1043.89 211.296C1047.24 214.816 1050.93 217.456 1054.98 219.216C1059.21 220.8 1063.52 221.592 1067.92 221.592C1071.79 221.592 1075.57 220.976 1079.27 219.744C1082.97 218.512 1086.4 216.488 1089.57 213.672C1090.45 213.144 1091.5 212.088 1092.73 210.504C1094.14 208.92 1095.11 207.688 1095.64 206.808L1136.56 234ZM1244.39 115.464V162.984H1214.03V267H1164.4V162.984H1133.77V115.464H1244.39ZM1329.03 115.464L1377.87 267H1327.71L1322.95 249.576H1280.98L1276.23 267H1226.07L1274.91 115.464H1329.03ZM1310.28 206.808L1302.1 174.336L1293.65 206.808H1310.28ZM1383.89 267V115.464H1452.27C1458.95 115.464 1465.73 116.872 1472.59 119.688C1479.63 122.504 1485.18 126.112 1489.23 130.512C1497.15 138.96 1501.11 148.552 1501.11 159.288C1501.11 164.92 1500.05 170.288 1497.94 175.392C1496 180.496 1492.83 185.072 1488.43 189.12C1494.24 192.992 1498.82 198.184 1502.16 204.696C1505.68 211.032 1507.44 217.28 1507.44 223.44C1507.44 229.248 1506.21 234.792 1503.75 240.072C1501.28 245.352 1497.85 250.016 1493.45 254.064C1489.23 257.936 1484.12 261.104 1478.14 263.568C1472.33 265.856 1466.08 267 1459.39 267H1383.89ZM1433.52 150.048V174.336H1440.91C1444.79 174.336 1448.04 173.192 1450.68 170.904C1453.5 168.44 1454.91 165.536 1454.91 162.192C1454.91 158.848 1453.5 156.032 1450.68 153.744C1448.04 151.28 1444.79 150.048 1440.91 150.048H1433.52ZM1433.52 206.28V230.832H1442.5C1446.37 230.832 1449.63 229.688 1452.27 227.4C1455.08 224.936 1456.49 221.944 1456.49 218.424C1456.49 215.08 1455.08 212.264 1452.27 209.976C1449.63 207.512 1446.37 206.28 1442.5 206.28H1433.52ZM1595.92 219.48V267H1514.34V115.464H1563.97V219.48H1595.92ZM1714.44 220.8V267H1603.03V115.464H1714.44V161.664H1652.66V171.96H1704.41V211.032H1652.66V220.8H1714.44Z" fill="white"/>
<path d="M255.96 75.6V72.6H252.96V75.6H255.96ZM338.856 75.6H341.856V72.6H338.856V75.6ZM338.856 124.704V127.704H341.856V124.704H338.856ZM325.128 124.704V121.704H322.128V124.704H325.128ZM325.128 217.896H322.128V220.896H325.128V217.896ZM338.856 217.896H341.856V214.896H338.856V217.896ZM338.856 267V270H341.856V267H338.856ZM255.96 267H252.96V270H255.96V267ZM255.96 217.896V214.896H252.96V217.896H255.96ZM269.688 217.896V220.896H272.688V217.896H269.688ZM269.688 124.704H272.688V121.704H269.688V124.704ZM255.96 124.704H252.96V127.704H255.96V124.704ZM255.96 78.6H338.856V72.6H255.96V78.6ZM335.856 75.6V124.704H341.856V75.6H335.856ZM338.856 121.704H325.128V127.704H338.856V121.704ZM322.128 124.704V217.896H328.128V124.704H322.128ZM325.128 220.896H338.856V214.896H325.128V220.896ZM335.856 217.896V267H341.856V217.896H335.856ZM338.856 264H255.96V270H338.856V264ZM258.96 267V217.896H252.96V267H258.96ZM255.96 220.896H269.688V214.896H255.96V220.896ZM272.688 217.896V124.704H266.688V217.896H272.688ZM269.688 121.704H255.96V127.704H269.688V121.704ZM258.96 124.704V75.6H252.96V124.704H258.96ZM460.23 115.464H463.23V112.464H460.23V115.464ZM460.23 267V270H463.23V267H460.23ZM416.406 267L413.799 268.485L414.663 270H416.406V267ZM390.534 221.592L393.141 220.107L387.534 210.267V221.592H390.534ZM390.534 267V270H393.534V267H390.534ZM346.71 267H343.71V270H346.71V267ZM346.71 115.464V112.464H343.71V115.464H346.71ZM390.27 115.464L392.988 114.195L392.18 112.464H390.27V115.464ZM412.71 163.512L409.992 164.781L415.71 163.512H412.71ZM412.71 115.464V112.464H409.71V115.464H412.71ZM457.23 115.464V267H463.23V115.464H457.23ZM460.23 264H416.406V270H460.23V264ZM419.013 265.515L393.141 220.107L387.927 223.077L413.799 268.485L419.013 265.515ZM387.534 221.592V267H393.534V221.592H387.534ZM390.534 264H346.71V270H390.534V264ZM349.71 267V115.464H343.71V267H349.71ZM346.71 118.464H390.27V112.464H346.71V118.464ZM387.552 116.733L409.992 164.781L415.428 162.243L392.988 114.195L387.552 116.733ZM415.71 163.512V115.464H409.71V163.512H415.71ZM412.71 118.464H460.23V112.464H412.71V118.464ZM578.461 115.464H581.461V112.464H578.461V115.464ZM578.461 162.984V165.984H581.461V162.984H578.461ZM548.101 162.984V159.984H545.101V162.984H548.101ZM548.101 267V270H551.101V267H548.101ZM498.469 267H495.469V270H498.469V267ZM498.469 162.984H501.469V159.984H498.469V162.984ZM467.845 162.984H464.845V165.984H467.845V162.984ZM467.845 115.464V112.464H464.845V115.464H467.845ZM575.461 115.464V162.984H581.461V115.464H575.461ZM578.461 159.984H548.101V165.984H578.461V159.984ZM545.101 162.984V267H551.101V162.984H545.101ZM548.101 264H498.469V270H548.101V264ZM501.469 267V162.984H495.469V267H501.469ZM498.469 159.984H467.845V165.984H498.469V159.984ZM470.845 162.984V115.464H464.845V162.984H470.845ZM467.845 118.464H578.461V112.464H467.845V118.464ZM696.079 220.8H699.079V217.8H696.079V220.8ZM696.079 267V270H699.079V267H696.079ZM584.671 267H581.671V270H584.671V267ZM584.671 115.464V112.464H581.671V115.464H584.671ZM696.079 115.464H699.079V112.464H696.079V115.464ZM696.079 161.664V164.664H699.079V161.664H696.079ZM634.303 161.664V158.664H631.303V161.664H634.303ZM634.303 171.96H631.303V174.96H634.303V171.96ZM686.047 171.96H689.047V168.96H686.047V171.96ZM686.047 211.032V214.032H689.047V211.032H686.047ZM634.303 211.032V208.032H631.303V211.032H634.303ZM634.303 220.8H631.303V223.8H634.303V220.8ZM693.079 220.8V267H699.079V220.8H693.079ZM696.079 264H584.671V270H696.079V264ZM587.671 267V115.464H581.671V267H587.671ZM584.671 118.464H696.079V112.464H584.671V118.464ZM693.079 115.464V161.664H699.079V115.464H693.079ZM696.079 158.664H634.303V164.664H696.079V158.664ZM631.303 161.664V171.96H637.303V161.664H631.303ZM634.303 174.96H686.047V168.96H634.303V174.96ZM683.047 171.96V211.032H689.047V171.96H683.047ZM686.047 208.032H634.303V214.032H686.047V208.032ZM631.303 211.032V220.8H637.303V211.032H631.303ZM634.303 223.8H696.079V217.8H634.303V223.8ZM838.924 267V270H844.46L841.437 265.362L838.924 267ZM785.596 267L783.136 268.718L784.032 270H785.596V267ZM767.644 242.448L765.271 244.285L765.286 244.303L765.301 244.322L767.644 242.448ZM758.404 231.624L756.282 233.745L756.333 233.796L756.386 233.844L758.404 231.624ZM754.972 229.776L757.468 231.44L757.571 231.285L757.655 231.118L754.972 229.776ZM754.444 267V270H757.444V267H754.444ZM704.812 267H701.812V270H704.812V267ZM704.812 115.464V112.464H701.812V115.464H704.812ZM786.652 120.216L787.909 117.492L787.909 117.492L786.652 120.216ZM804.34 132.624L802.181 134.708L802.216 134.744L802.252 134.779L804.34 132.624ZM817.012 151.368L814.226 152.482L814.243 152.525L814.261 152.567L817.012 151.368ZM817.012 194.4L814.24 193.251L814.228 193.28L814.217 193.309L817.012 194.4ZM804.34 213.936L802.186 211.848L800.518 213.567L801.826 215.574L804.34 213.936ZM770.02 163.776L772.141 161.655L772.141 161.655L770.02 163.776ZM753.916 160.344V157.344H750.916V160.344H753.916ZM753.916 183.576H750.916V186.576H753.916V183.576ZM838.924 264H785.596V270H838.924V264ZM788.055 265.282C780.303 254.182 774.273 245.933 769.986 240.574L765.301 244.322C769.462 249.523 775.4 257.642 783.136 268.718L788.055 265.282ZM770.016 240.611C765.803 235.17 762.577 231.364 760.422 229.404L756.386 233.844C758.102 235.404 761.036 238.814 765.271 244.285L770.016 240.611ZM760.525 229.503C759.526 228.504 758.498 227.597 757.516 227.069C757.055 226.821 756.223 226.441 755.208 226.501C753.885 226.579 752.826 227.358 752.288 228.434L757.655 231.118C757.512 231.404 757.255 231.764 756.828 232.055C756.394 232.35 755.937 232.468 755.56 232.49C754.919 232.528 754.56 232.291 754.671 232.351C754.833 232.439 755.345 232.808 756.282 233.745L760.525 229.503ZM752.475 228.112C751.759 229.186 751.444 230.395 751.444 231.624H757.444C757.444 231.523 757.456 231.473 757.46 231.458C757.464 231.446 757.466 231.443 757.468 231.44L752.475 228.112ZM751.444 231.624V267H757.444V231.624H751.444ZM754.444 264H704.812V270H754.444V264ZM707.812 267V115.464H701.812V267H707.812ZM704.812 118.464H765.532V112.464H704.812V118.464ZM765.532 118.464C772.293 118.464 778.905 119.945 785.394 122.94L787.909 117.492C780.67 114.151 773.202 112.464 765.532 112.464V118.464ZM785.394 122.94C791.943 125.962 797.528 129.888 802.181 134.708L806.498 130.54C801.295 125.152 795.088 120.806 787.909 117.492L785.394 122.94ZM802.252 134.779C807.591 139.951 811.572 145.848 814.226 152.482L819.797 150.254C816.819 142.808 812.352 136.209 806.427 130.469L802.252 134.779ZM814.261 152.567C817.095 159.067 818.5 165.7 818.5 172.488H824.5C824.5 164.844 822.912 157.397 819.762 150.169L814.261 152.567ZM818.5 172.488C818.5 179.464 817.09 186.378 814.24 193.251L819.783 195.549C822.917 187.99 824.5 180.296 824.5 172.488H818.5ZM814.217 193.309C811.552 200.137 807.553 206.313 802.186 211.848L806.493 216.024C812.391 209.943 816.839 203.095 819.806 195.491L814.217 193.309ZM801.826 215.574L836.41 268.638L841.437 265.362L806.853 212.298L801.826 215.574ZM776.452 171.96C776.452 167.977 774.978 164.492 772.141 161.655L767.898 165.897C769.637 167.636 770.452 169.607 770.452 171.96H776.452ZM772.141 161.655C769.27 158.783 765.681 157.344 761.572 157.344V163.344C764.15 163.344 766.194 164.193 767.898 165.897L772.141 161.655ZM761.572 157.344H753.916V163.344H761.572V157.344ZM750.916 160.344V183.576H756.916V160.344H750.916ZM753.916 186.576H761.572V180.576H753.916V186.576ZM761.572 186.576C765.681 186.576 769.27 185.137 772.141 182.265L767.898 178.023C766.194 179.727 764.15 180.576 761.572 180.576V186.576ZM772.141 182.265C774.978 179.428 776.452 175.943 776.452 171.96H770.452C770.452 174.313 769.637 176.284 767.898 178.023L772.141 182.265ZM945.658 115.464L948.513 114.544L947.843 112.464H945.658V115.464ZM994.498 267V270H998.617L997.353 266.08L994.498 267ZM944.338 267L941.444 267.789L942.047 270H944.338V267ZM939.586 249.576L942.48 248.787L941.877 246.576H939.586V249.576ZM897.61 249.576V246.576H895.319L894.716 248.787L897.61 249.576ZM892.858 267V270H895.149L895.752 267.789L892.858 267ZM842.698 267L839.843 266.08L838.579 270H842.698V267ZM891.538 115.464V112.464H889.353L888.683 114.544L891.538 115.464ZM926.914 206.808V209.808H930.764L929.823 206.075L926.914 206.808ZM918.73 174.336L921.639 173.603L915.827 173.581L918.73 174.336ZM910.282 206.808L907.379 206.053L906.402 209.808H910.282V206.808ZM942.803 116.384L991.643 267.92L997.353 266.08L948.513 114.544L942.803 116.384ZM994.498 264H944.338V270H994.498V264ZM947.232 266.211L942.48 248.787L936.692 250.365L941.444 267.789L947.232 266.211ZM939.586 246.576H897.61V252.576H939.586V246.576ZM894.716 248.787L889.964 266.211L895.752 267.789L900.504 250.365L894.716 248.787ZM892.858 264H842.698V270H892.858V264ZM845.553 267.92L894.393 116.384L888.683 114.544L839.843 266.08L845.553 267.92ZM891.538 118.464H945.658V112.464H891.538V118.464ZM929.823 206.075L921.639 173.603L915.821 175.069L924.005 207.541L929.823 206.075ZM915.827 173.581L907.379 206.053L913.185 207.563L921.633 175.091L915.827 173.581ZM910.282 209.808H926.914V203.808H910.282V209.808ZM1136.56 234L1138.98 235.774L1140.84 233.24L1138.22 231.501L1136.56 234ZM1129.69 242.448L1131.88 244.5L1131.91 244.467L1131.94 244.433L1129.69 242.448ZM1123.62 248.52L1125.5 250.863L1125.55 250.821L1125.6 250.778L1123.62 248.52ZM1097.22 263.304L1098.22 266.134L1098.23 266.129L1098.25 266.123L1097.22 263.304ZM1034.92 261.72L1033.74 264.48L1033.77 264.491L1033.8 264.502L1034.92 261.72ZM1006.41 242.712L1004.23 244.781L1004.27 244.819L1004.31 244.856L1006.41 242.712ZM990.303 218.424L987.51 219.519L987.523 219.553L987.537 219.586L990.303 218.424ZM991.887 160.344L994.608 161.607L994.612 161.598L994.616 161.589L991.887 160.344ZM1012.21 133.944L1010.33 131.606L1010.31 131.628L1010.28 131.65L1012.21 133.944ZM1038.35 119.16L1039.36 121.984L1039.38 121.979L1039.39 121.973L1038.35 119.16ZM1101.18 121.008L1100 123.765L1100.01 123.769L1100.02 123.772L1101.18 121.008ZM1131.54 142.128L1133.46 144.435L1135.94 142.373L1133.7 140.048L1131.54 142.128ZM1094.05 173.28L1091.93 175.401L1093.87 177.336L1095.97 175.587L1094.05 173.28ZM1081.12 164.304L1079.86 167.028L1079.91 167.048L1079.95 167.067L1081.12 164.304ZM1045.74 169.056L1043.88 166.701L1043.85 166.731L1043.81 166.761L1045.74 169.056ZM1038.09 179.088L1040.82 180.329L1040.82 180.329L1038.09 179.088ZM1037.29 201.528L1034.46 202.519L1034.48 202.581L1034.51 202.642L1037.29 201.528ZM1043.89 211.296L1046.07 209.23L1046.04 209.202L1046.02 209.175L1043.89 211.296ZM1054.98 219.216L1053.79 221.967L1053.86 221.998L1053.93 222.025L1054.98 219.216ZM1089.57 213.672L1088.02 211.1L1087.78 211.244L1087.57 211.43L1089.57 213.672ZM1092.73 210.504L1090.49 208.511L1090.43 208.584L1090.37 208.662L1092.73 210.504ZM1095.64 206.808L1097.3 204.309L1094.68 202.571L1093.07 205.265L1095.64 206.808ZM1134.14 232.226C1132.27 234.779 1130.04 237.525 1127.45 240.463L1131.94 244.433C1134.63 241.387 1136.98 238.501 1138.98 235.774L1134.14 232.226ZM1127.51 240.396C1124.88 243.199 1122.94 245.133 1121.65 246.262L1125.6 250.778C1127.12 249.443 1129.23 247.329 1131.88 244.5L1127.51 240.396ZM1121.75 246.177C1114.09 252.306 1105.58 257.075 1096.2 260.485L1098.25 266.123C1108.23 262.493 1117.32 257.406 1125.5 250.863L1121.75 246.177ZM1096.23 260.474C1087.04 263.706 1077.61 265.32 1067.92 265.32V271.32C1078.29 271.32 1088.4 269.59 1098.22 266.134L1096.23 260.474ZM1067.92 265.32C1057.24 265.32 1046.62 263.203 1036.04 258.938L1033.8 264.502C1045.04 269.037 1056.42 271.32 1067.92 271.32V265.32ZM1036.1 258.96C1025.7 254.529 1016.51 248.401 1008.51 240.568L1004.31 244.856C1012.85 253.215 1022.67 259.759 1033.74 264.48L1036.1 258.96ZM1008.58 240.643C1001.77 233.496 996.614 225.704 993.069 217.262L987.537 219.586C991.384 228.744 996.961 237.144 1004.23 244.781L1008.58 240.643ZM993.096 217.329C989.708 208.69 988.023 199.909 988.023 190.968H982.023C982.023 200.683 983.858 210.206 987.51 219.519L993.096 217.329ZM988.023 190.968C988.023 180.857 990.21 171.079 994.608 161.607L989.166 159.081C984.412 169.321 982.023 179.959 982.023 190.968H988.023ZM994.616 161.589C998.996 151.987 1005.49 143.538 1014.15 136.238L1010.28 131.65C1000.99 139.486 993.93 148.637 989.157 159.099L994.616 161.589ZM1014.1 136.282C1021.94 129.969 1030.36 125.21 1039.36 121.984L1037.34 116.336C1027.68 119.798 1018.68 124.895 1010.33 131.606L1014.1 136.282ZM1039.39 121.973C1048.57 118.573 1057.9 116.88 1067.39 116.88V110.88C1057.17 110.88 1047.14 112.707 1037.31 116.347L1039.39 121.973ZM1067.39 116.88C1078.4 116.88 1089.27 119.165 1100 123.765L1102.36 118.251C1090.92 113.347 1079.26 110.88 1067.39 110.88V116.88ZM1100.02 123.772C1110.88 128.357 1120.67 135.156 1129.38 144.208L1133.7 140.048C1124.46 130.444 1114.01 123.163 1102.35 118.244L1100.02 123.772ZM1129.63 139.821L1092.14 170.973L1095.97 175.587L1133.46 144.435L1129.63 139.821ZM1096.18 171.159C1091.9 166.879 1087.27 163.649 1082.29 161.541L1079.95 167.067C1084.12 168.831 1088.12 171.585 1091.93 175.401L1096.18 171.159ZM1082.38 161.58C1077.45 159.305 1072.44 158.136 1067.39 158.136V164.136C1071.49 164.136 1075.64 165.079 1079.86 167.028L1082.38 161.58ZM1067.39 158.136C1058.9 158.136 1051.04 161.048 1043.88 166.701L1047.6 171.411C1053.82 166.504 1060.39 164.136 1067.39 164.136V158.136ZM1043.81 166.761C1040.13 169.856 1037.31 173.557 1035.36 177.847L1040.82 180.329C1042.39 176.875 1044.66 173.888 1047.68 171.351L1043.81 166.761ZM1035.36 177.847C1033.43 182.088 1032.45 186.47 1032.45 190.968H1038.45C1038.45 187.37 1039.23 183.832 1040.82 180.329L1035.36 177.847ZM1032.45 190.968C1032.45 194.845 1033.13 198.7 1034.46 202.519L1040.13 200.537C1039 197.316 1038.45 194.131 1038.45 190.968H1032.45ZM1034.51 202.642C1036.08 206.581 1038.53 210.171 1041.77 213.417L1046.02 209.175C1043.28 206.437 1041.32 203.515 1040.08 200.414L1034.51 202.642ZM1041.72 213.362C1045.31 217.145 1049.33 220.031 1053.79 221.967L1056.18 216.465C1052.54 214.881 1049.16 212.487 1046.07 209.23L1041.72 213.362ZM1053.93 222.025C1058.48 223.732 1063.15 224.592 1067.92 224.592V218.592C1063.89 218.592 1059.93 217.868 1056.04 216.407L1053.93 222.025ZM1067.92 224.592C1072.12 224.592 1076.22 223.923 1080.22 222.59L1078.32 216.898C1074.93 218.029 1071.47 218.592 1067.92 218.592V224.592ZM1080.22 222.59C1084.33 221.219 1088.12 218.976 1091.56 215.914L1087.57 211.43C1084.68 214 1081.6 215.805 1078.32 216.898L1080.22 222.59ZM1091.11 216.244C1092.48 215.42 1093.82 213.997 1095.1 212.346L1090.37 208.662C1089.19 210.179 1088.41 210.868 1088.02 211.1L1091.11 216.244ZM1094.98 212.497C1096.41 210.888 1097.53 209.484 1098.21 208.351L1093.07 205.265C1092.69 205.892 1091.88 206.952 1090.49 208.511L1094.98 212.497ZM1093.98 209.307L1134.9 236.499L1138.22 231.501L1097.3 204.309L1093.98 209.307ZM1244.39 115.464H1247.39V112.464H1244.39V115.464ZM1244.39 162.984V165.984H1247.39V162.984H1244.39ZM1214.03 162.984V159.984H1211.03V162.984H1214.03ZM1214.03 267V270H1217.03V267H1214.03ZM1164.4 267H1161.4V270H1164.4V267ZM1164.4 162.984H1167.4V159.984H1164.4V162.984ZM1133.77 162.984H1130.77V165.984H1133.77V162.984ZM1133.77 115.464V112.464H1130.77V115.464H1133.77ZM1241.39 115.464V162.984H1247.39V115.464H1241.39ZM1244.39 159.984H1214.03V165.984H1244.39V159.984ZM1211.03 162.984V267H1217.03V162.984H1211.03ZM1214.03 264H1164.4V270H1214.03V264ZM1167.4 267V162.984H1161.4V267H1167.4ZM1164.4 159.984H1133.77V165.984H1164.4V159.984ZM1136.77 162.984V115.464H1130.77V162.984H1136.77ZM1133.77 118.464H1244.39V112.464H1133.77V118.464ZM1329.03 115.464L1331.88 114.544L1331.21 112.464H1329.03V115.464ZM1377.87 267V270H1381.98L1380.72 266.08L1377.87 267ZM1327.71 267L1324.81 267.789L1325.41 270H1327.71V267ZM1322.95 249.576L1325.85 248.787L1325.24 246.576H1322.95V249.576ZM1280.98 249.576V246.576H1278.69L1278.08 248.787L1280.98 249.576ZM1276.23 267V270H1278.52L1279.12 267.789L1276.23 267ZM1226.07 267L1223.21 266.08L1221.95 270H1226.07V267ZM1274.91 115.464V112.464H1272.72L1272.05 114.544L1274.91 115.464ZM1310.28 206.808V209.808H1314.13L1313.19 206.075L1310.28 206.808ZM1302.1 174.336L1305.01 173.603L1299.19 173.581L1302.1 174.336ZM1293.65 206.808L1290.75 206.053L1289.77 209.808H1293.65V206.808ZM1326.17 116.384L1375.01 267.92L1380.72 266.08L1331.88 114.544L1326.17 116.384ZM1377.87 264H1327.71V270H1377.87V264ZM1330.6 266.211L1325.85 248.787L1320.06 250.365L1324.81 267.789L1330.6 266.211ZM1322.95 246.576H1280.98V252.576H1322.95V246.576ZM1278.08 248.787L1273.33 266.211L1279.12 267.789L1283.87 250.365L1278.08 248.787ZM1276.23 264H1226.07V270H1276.23V264ZM1228.92 267.92L1277.76 116.384L1272.05 114.544L1223.21 266.08L1228.92 267.92ZM1274.91 118.464H1329.03V112.464H1274.91V118.464ZM1313.19 206.075L1305.01 173.603L1299.19 175.069L1307.37 207.541L1313.19 206.075ZM1299.19 173.581L1290.75 206.053L1296.55 207.563L1305 175.091L1299.19 173.581ZM1293.65 209.808H1310.28V203.808H1293.65V209.808ZM1383.89 267H1380.89V270H1383.89V267ZM1383.89 115.464V112.464H1380.89V115.464H1383.89ZM1472.59 119.688L1471.46 122.463L1471.47 122.469L1471.48 122.473L1472.59 119.688ZM1489.23 130.512L1487.02 132.543L1487.03 132.554L1487.04 132.564L1489.23 130.512ZM1497.94 175.392L1495.17 174.245L1495.15 174.286L1495.13 174.328L1497.94 175.392ZM1488.43 189.12L1486.4 186.912L1483.59 189.498L1486.77 191.616L1488.43 189.12ZM1502.16 204.696L1499.49 206.066L1499.52 206.11L1499.54 206.153L1502.16 204.696ZM1503.75 240.072L1501.03 238.803L1501.03 238.803L1503.75 240.072ZM1493.45 254.064L1495.48 256.275L1495.48 256.272L1493.45 254.064ZM1478.14 263.568L1479.24 266.359L1479.26 266.351L1479.28 266.342L1478.14 263.568ZM1433.52 150.048V147.048H1430.52V150.048H1433.52ZM1433.52 174.336H1430.52V177.336H1433.52V174.336ZM1450.68 170.904L1452.65 173.171L1452.65 173.166L1452.66 173.162L1450.68 170.904ZM1450.68 153.744L1448.63 155.937L1448.71 156.007L1448.79 156.072L1450.68 153.744ZM1433.52 206.28V203.28H1430.52V206.28H1433.52ZM1433.52 230.832H1430.52V233.832H1433.52V230.832ZM1452.27 227.4L1454.23 229.667L1454.24 229.662L1454.24 229.658L1452.27 227.4ZM1452.27 209.976L1450.22 212.169L1450.29 212.239L1450.37 212.304L1452.27 209.976ZM1386.89 267V115.464H1380.89V267H1386.89ZM1383.89 118.464H1452.27V112.464H1383.89V118.464ZM1452.27 118.464C1458.52 118.464 1464.91 119.78 1471.46 122.463L1473.73 116.912C1466.55 113.964 1459.38 112.464 1452.27 112.464V118.464ZM1471.48 122.473C1478.21 125.166 1483.34 128.549 1487.02 132.543L1491.43 128.481C1487.01 123.675 1481.06 119.842 1473.71 116.903L1471.48 122.473ZM1487.04 132.564C1494.48 140.504 1498.11 149.377 1498.11 159.288H1504.11C1504.11 147.727 1499.81 137.416 1491.41 128.46L1487.04 132.564ZM1498.11 159.288C1498.11 164.534 1497.12 169.512 1495.17 174.245L1500.71 176.539C1502.98 171.064 1504.11 165.306 1504.11 159.288H1498.11ZM1495.13 174.328C1493.38 178.955 1490.49 183.15 1486.4 186.912L1490.46 191.328C1495.17 186.994 1498.63 182.037 1500.74 176.456L1495.13 174.328ZM1486.77 191.616C1492.13 195.191 1496.37 199.986 1499.49 206.066L1504.83 203.326C1501.26 196.382 1496.35 190.793 1490.1 186.624L1486.77 191.616ZM1499.54 206.153C1502.86 212.122 1504.44 217.873 1504.44 223.44H1510.44C1510.44 216.687 1508.51 209.942 1504.78 203.239L1499.54 206.153ZM1504.44 223.44C1504.44 228.808 1503.31 233.919 1501.03 238.803L1506.46 241.341C1509.11 235.665 1510.44 229.688 1510.44 223.44H1504.44ZM1501.03 238.803C1498.73 243.719 1495.54 248.066 1491.42 251.856L1495.48 256.272C1500.16 251.966 1503.83 246.985 1506.46 241.341L1501.03 238.803ZM1491.42 251.853C1487.49 255.458 1482.7 258.447 1477 260.794L1479.28 266.342C1485.55 263.761 1490.96 260.414 1495.48 256.275L1491.42 251.853ZM1477.04 260.777C1471.6 262.917 1465.73 264 1459.39 264V270C1466.43 270 1473.05 268.795 1479.24 266.359L1477.04 260.777ZM1459.39 264H1383.89V270H1459.39V264ZM1430.52 150.048V174.336H1436.52V150.048H1430.52ZM1433.52 177.336H1440.91V171.336H1433.52V177.336ZM1440.91 177.336C1445.42 177.336 1449.4 175.984 1452.65 173.171L1448.72 168.637C1446.68 170.4 1444.15 171.336 1440.91 171.336V177.336ZM1452.66 173.162C1456.04 170.204 1457.91 166.51 1457.91 162.192H1451.91C1451.91 164.562 1450.96 166.676 1448.71 168.646L1452.66 173.162ZM1457.91 162.192C1457.91 157.86 1456.02 154.218 1452.57 151.416L1448.79 156.072C1450.97 157.846 1451.91 159.836 1451.91 162.192H1457.91ZM1452.73 151.551C1449.49 148.529 1445.49 147.048 1440.91 147.048V153.048C1444.09 153.048 1446.59 154.031 1448.63 155.937L1452.73 151.551ZM1440.91 147.048H1433.52V153.048H1440.91V147.048ZM1430.52 206.28V230.832H1436.52V206.28H1430.52ZM1433.52 233.832H1442.5V227.832H1433.52V233.832ZM1442.5 233.832C1447.01 233.832 1450.98 232.48 1454.23 229.667L1450.3 225.133C1448.27 226.896 1445.73 227.832 1442.5 227.832V233.832ZM1454.24 229.658C1457.66 226.665 1459.49 222.869 1459.49 218.424H1453.49C1453.49 221.019 1452.5 223.207 1450.29 225.142L1454.24 229.658ZM1459.49 218.424C1459.49 214.092 1457.61 210.45 1454.16 207.648L1450.37 212.304C1452.56 214.078 1453.49 216.068 1453.49 218.424H1459.49ZM1454.31 207.783C1451.07 204.761 1447.07 203.28 1442.5 203.28V209.28C1445.67 209.28 1448.18 210.263 1450.22 212.169L1454.31 207.783ZM1442.5 203.28H1433.52V209.28H1442.5V203.28ZM1595.92 219.48H1598.92V216.48H1595.92V219.48ZM1595.92 267V270H1598.92V267H1595.92ZM1514.34 267H1511.34V270H1514.34V267ZM1514.34 115.464V112.464H1511.34V115.464H1514.34ZM1563.97 115.464H1566.97V112.464H1563.97V115.464ZM1563.97 219.48H1560.97V222.48H1563.97V219.48ZM1592.92 219.48V267H1598.92V219.48H1592.92ZM1595.92 264H1514.34V270H1595.92V264ZM1517.34 267V115.464H1511.34V267H1517.34ZM1514.34 118.464H1563.97V112.464H1514.34V118.464ZM1560.97 115.464V219.48H1566.97V115.464H1560.97ZM1563.97 222.48H1595.92V216.48H1563.97V222.48ZM1714.44 220.8H1717.44V217.8H1714.44V220.8ZM1714.44 267V270H1717.44V267H1714.44ZM1603.03 267H1600.03V270H1603.03V267ZM1603.03 115.464V112.464H1600.03V115.464H1603.03ZM1714.44 115.464H1717.44V112.464H1714.44V115.464ZM1714.44 161.664V164.664H1717.44V161.664H1714.44ZM1652.66 161.664V158.664H1649.66V161.664H1652.66ZM1652.66 171.96H1649.66V174.96H1652.66V171.96ZM1704.41 171.96H1707.41V168.96H1704.41V171.96ZM1704.41 211.032V214.032H1707.41V211.032H1704.41ZM1652.66 211.032V208.032H1649.66V211.032H1652.66ZM1652.66 220.8H1649.66V223.8H1652.66V220.8ZM1711.44 220.8V267H1717.44V220.8H1711.44ZM1714.44 264H1603.03V270H1714.44V264ZM1606.03 267V115.464H1600.03V267H1606.03ZM1603.03 118.464H1714.44V112.464H1603.03V118.464ZM1711.44 115.464V161.664H1717.44V115.464H1711.44ZM1714.44 158.664H1652.66V164.664H1714.44V158.664ZM1649.66 161.664V171.96H1655.66V161.664H1649.66ZM1652.66 174.96H1704.41V168.96H1652.66V174.96ZM1701.41 171.96V211.032H1707.41V171.96H1701.41ZM1704.41 208.032H1652.66V214.032H1704.41V208.032ZM1649.66 211.032V220.8H1655.66V211.032H1649.66ZM1652.66 223.8H1714.44V217.8H1652.66V223.8Z" fill="#2272FF"/>
<g clip-path="url(#clip1_14_4)">
<path d="M141.844 75.4679L164.656 115.822L203.488 88.6707L185.129 131.611L230.739 144.024L185.034 157.215L203.077 199.845L164.443 173.355L141.332 214.1L138.861 167.875L91.9987 176.055L127.552 144.904L92.2267 114.357L139.031 121.738L141.844 75.4679Z" fill="#FF5F1F"/>
<path d="M75.6586 137.664L82.7527 134.39L88.7554 136.027L91.4839 143.667V155.126L73.1561 170.952L75.6586 173.134L88.7554 162.22L101.306 155.126L117.132 140.75L130.229 133.131L141.142 125.113L148.237 127.841L152.602 134.39L139.505 148.032L121.224 162.22L105.126 175.863L107.855 181.32L117.132 170.952L127.5 163.858L132.957 157.855L143.325 150.215L149.874 152.944L154.239 157.855L152.602 165.495L143.325 173.134L130.229 185.14L122.589 191.142L125.863 192.78L148.237 175.863L159.151 170.952H166.79L170.065 178.046L162.97 185.14L154.239 191.142L146.599 198.782L139.505 205.876L143.325 207.513L159.151 196.599L166.79 191.142H173.884L176.613 194.417L173.884 202.056L166.79 207.513L156.422 211.879L149.874 217.336L143.325 226.613L135.685 236.436L122.589 244.621L112.22 252.806L105.126 260.446L94.2124 266.995L82.7527 260.446L73.1561 254.444L66.9274 248.441L56.0134 241.892L49.4651 236.436L51.6479 223.884L44.5538 209.151V196.599L49.4651 178.046L54.3764 162.22L66.9274 150.215L69.1102 143.667L75.6586 137.664Z" fill="white" stroke="#2272FF" stroke-width="4"/>
</g>
</g>
<defs>
<clipPath id="clip0_14_4">
<rect width="1769" height="354" fill="white"/>
</clipPath>
<clipPath id="clip1_14_4">
<rect width="203" height="203" fill="white" transform="translate(26 76)"/>
</clipPath>
</defs>
</svg>
