<svg width="170" height="150" viewBox="0 0 170 150" fill="none" xmlns="http://www.w3.org/2000/svg">
<mask id="mask0_220_52" style="mask-type:alpha" maskUnits="userSpaceOnUse" x="0" y="0" width="170" height="150">
<path d="M82.1728 1.80299C71.4832 3.61949 61.5144 10.11 56.938 18.3015C54.1925 23.2335 53.2762 27.3 53.3425 34.338C53.3425 38.088 53.2761 39.27 52.8851 39.8175C52.0997 40.884 51.9365 42.528 52.3292 44.8935C53.1129 49.335 55.4997 53.7195 58.1806 55.623C59.0952 56.286 59.6511 57.0075 60.1747 58.305C65.4039 71.112 76.9095 79.3305 87.5005 77.889C96.6856 76.62 105.152 69.294 109.663 58.6515C110.284 57.2385 110.938 56.4015 112.409 55.1325C114.599 53.229 115.972 50.979 117.084 47.403C117.966 44.547 118.097 41.058 117.346 40.02C116.888 39.4425 116.758 38.1165 116.627 32.694C116.431 25.455 116.038 23.118 114.208 18.936C111.887 13.716 107.244 9.79349 102.668 9.27299C101.655 9.15749 101.361 8.98499 101.197 8.35049C101.099 7.94699 100.543 7.02299 100.021 6.30299C97.7005 3.30299 93.6477 1.68749 87.9595 1.51499C85.9314 1.45649 83.5787 1.57199 82.1728 1.80299ZM79.1978 20.8965C82.0742 21.588 88.0564 21.5595 90.9005 20.868C93.6783 20.1765 97.7974 20.1465 99.5637 20.8395C104.271 22.6275 107.572 27.2145 108.553 33.27C109.534 39.4425 108.39 49.422 105.906 55.9695C103.88 61.3335 99.6963 67.1895 95.9699 69.8715C92.439 72.438 88.1568 74.082 85.0186 74.082C80.2127 74.082 74.1334 70.8225 70.0806 66.0645C63.9028 58.854 60.7 48.153 61.2542 36.588C61.516 30.9345 62.6278 27.705 65.5042 24.273C68.6407 20.5215 73.0523 19.455 79.1978 20.8965Z" fill="black"/>
<path d="M59.454 79.965C58.0804 80.772 55.6953 82.041 54.1585 82.7625L51.3467 84.0315V100.933V117.835L53.4717 118.758C61.1863 122.103 60.9908 131.823 53.1453 134.995C50.7925 135.948 46.9352 135.918 44.647 134.938C42.4897 134.016 40.6911 132.343 39.6456 130.353C37.2911 125.883 39.7765 120.373 44.9734 118.47L46.772 117.807V102.001C46.772 93.3195 46.6734 86.196 46.5765 86.196C46.4779 86.196 42.9164 87.5805 38.6664 89.3115C29.5459 92.946 25.2636 94.9935 22.9771 96.753C18.1712 100.473 15.5243 110.914 14.4125 130.47C13.758 142.209 13.9552 143.535 16.8316 146.073C19.8712 148.726 13.5302 148.496 85.0186 148.496C156.507 148.496 150.166 148.726 153.206 146.044C155.82 143.737 156.082 142.641 155.82 135.228C155.035 114.375 152.485 102.058 148.104 97.617C146.928 96.435 143.103 94.242 139.408 92.598C135.912 91.041 123.685 86.1945 123.26 86.1945C123.065 86.1945 122.934 87.4635 122.934 89.367C122.934 91.704 123.032 92.5395 123.359 92.5395C124.144 92.5395 127.347 94.011 128.687 94.9905C130.419 96.2595 132.381 98.826 133.656 101.538C134.342 102.979 135.551 107.422 137.481 115.468C140.128 126.486 140.292 127.38 139.964 128.707C139.344 131.13 137.317 132.832 133.95 133.783C133.297 133.956 132.316 134.505 131.792 134.965C130.092 136.437 126.791 135.946 125.679 134.013C123.915 130.984 127.641 127.84 131.106 129.427C132.316 129.975 132.544 130.005 133.557 129.628C134.145 129.397 134.897 128.878 135.191 128.475C135.747 127.753 135.68 127.35 133.229 117.111C131.855 111.285 130.353 105.516 129.928 104.305C126.038 93.7785 115.806 93.6915 111.59 104.19C111.066 105.546 105.935 126.744 105.935 127.638C105.935 128.301 107.047 129.31 108.322 129.714C109.041 129.973 109.4 129.915 110.284 129.454C110.84 129.138 111.789 128.877 112.31 128.877C114.272 128.877 116.397 130.693 116.397 132.337C116.397 133.375 115.384 134.932 114.403 135.366C112.866 136.087 111.003 135.913 109.762 134.962C109.174 134.472 107.833 133.809 106.787 133.462C103.518 132.394 101.395 130.146 101.361 127.752C101.361 126.483 106.394 105.399 107.277 102.919C108.944 98.334 112.246 94.728 116.168 93.258L118.357 92.421V88.1805V83.94L115.515 82.59C113.914 81.8115 111.593 80.571 110.286 79.821C107.703 78.264 107.246 78.177 106.527 78.8985C106.265 79.1865 102.768 85.6185 98.7478 93.1755C94.695 100.732 91.3613 106.875 91.2627 106.818C91.1981 106.731 90.7068 104.511 90.2172 101.886L89.3026 97.0695L90.4144 95.916C92.5717 93.7245 93.3231 90.753 92.4085 88.4175C91.3953 85.908 89.4998 85.0425 85.0203 85.0425C80.5425 85.0425 78.647 85.908 77.6321 88.4175C76.7175 90.753 77.4689 93.7245 79.6262 95.916L80.738 97.0695L79.8234 101.886C79.3338 104.511 78.8425 106.731 78.7779 106.818C78.6793 106.875 75.3133 100.732 71.2928 93.1755C67.2723 85.6185 63.7754 79.1865 63.5136 78.8985C62.7554 78.1485 62.2012 78.2925 59.454 79.965Z" fill="black"/>
</mask>
<g mask="url(#mask0_220_52)">
<rect x="3" y="1" width="167" height="150" fill="#FF5F1F"/>
</g>
</svg>
