<svg width="170" height="150" viewBox="0 0 170 150" fill="none" xmlns="http://www.w3.org/2000/svg">
<mask id="mask0_262_177" style="mask-type:alpha" maskUnits="userSpaceOnUse" x="0" y="0" width="170" height="150">
<path d="M131.195 20.5C103.808 -3.275 59.3869 -3.275 32 20.5C10.089 45.205 21.0001 77 40.0001 102.5L81.589 149.665L101.5 126L121 102.5C139.5 77 156 44.5 131.195 20.5ZM81.589 82C75.724 82 71.148 78.66 67 75C62.5 68 62 61 67 52.5C71.131 48.855 75.724 47 81.589 47C87.454 47 91.852 48.84 96 52.5C101.5 61 101.5 68.5 95 77C90.852 80.66 87.437 82 81.589 82Z" fill="black"/>
</mask>
<g mask="url(#mask0_262_177)">
<rect x="2" y="-1" width="176" height="158" fill="#FF5F1F"/>
</g>
</svg>
