<svg width="170" height="150" viewBox="0 0 170 150" fill="none" xmlns="http://www.w3.org/2000/svg">
<mask id="mask0_260_150" style="mask-type:alpha" maskUnits="userSpaceOnUse" x="0" y="0" width="170" height="150">
<path d="M31.5264 1.737C27.919 2.7345 25.3962 4.57499 23.6571 7.52999L22.6133 9.2565V75.042V140.828L23.6571 142.554C25.0477 144.894 26.5692 146.276 29.1345 147.464L31.3088 148.499H84.9999H138.689L140.471 147.654C143.254 146.351 144.949 144.93 146.21 142.782L147.383 140.826V75.042V9.2565L146.21 7.33801C144.862 5.07451 143.298 3.73199 140.646 2.50499L138.689 1.584L85.651 1.50749C56.4807 1.46849 32.135 1.584 31.5264 1.737ZM138.038 8.1435C140.864 9.639 140.646 4.269 140.646 75.234V139.563L138.951 141.059L137.256 142.554H84.9999H32.7436L31.0487 141.059L29.3538 139.563V75.234C29.3538 16.5825 29.398 10.8285 30.0491 9.86999C31.7015 7.37699 27.7881 7.56899 84.9132 7.52999C132.212 7.52999 136.908 7.5675 138.038 8.1435Z" fill="black"/>
<path d="M91.9563 36.6825V53.5605H109.346H126.735V36.6825V19.8045H109.346H91.9563V36.6825ZM119.778 36.6825V47.4225H109.344H98.911V36.6825V25.9425H109.344H119.778V36.6825Z" fill="black"/>
<path d="M36.3086 29.0115V32.0805H55.437H74.5654V29.0115V25.9425H55.437H36.3086V29.0115Z" fill="black"/>
<path d="M36.3086 44.355V47.424H55.437H74.5654V44.355V41.286H55.437H36.3086V44.355Z" fill="black"/>
<path d="M36.3086 68.904V71.973H81.5218H126.735V68.904V65.835H81.5218H36.3086V68.904Z" fill="black"/>
<path d="M36.3086 87.3165V90.3855H81.5218H126.735V87.3165V84.2475H81.5218H36.3086V87.3165Z" fill="black"/>
<path d="M36.3086 105.729V108.798H81.5218H126.735V105.729V102.66H81.5218H36.3086V105.729Z" fill="black"/>
<path d="M36.3086 124.142V127.211H81.5218H126.735V124.142V121.073H81.5218H36.3086V124.142Z" fill="black"/>
</mask>
<g mask="url(#mask0_260_150)">
<rect x="13" y="1" width="145" height="148" fill="#FF5F1F"/>
</g>
</svg>
