<svg width="170" height="150" viewBox="0 0 170 150" fill="none" xmlns="http://www.w3.org/2000/svg">
<mask id="mask0_259_84" style="mask-type:alpha" maskUnits="userSpaceOnUse" x="0" y="0" width="170" height="150">
<path d="M143.075 107.031L123.384 72.8125C125.396 68.5352 126.507 63.7862 126.507 58.8095C126.507 39.6183 109.939 24.0377 89.502 24.0377C69.0652 24.0377 52.4972 39.6021 52.4972 58.8095C52.4972 63.9163 53.6769 68.7629 55.7761 73.1215L35.9986 107.015C35.3567 108.105 35.4608 109.455 36.2588 110.43C37.0568 111.423 38.41 111.894 39.6938 111.601L56.5915 107.958L62.3686 123.084C62.8197 124.255 63.9647 125.084 65.3005 125.165C65.3873 125.165 65.474 125.165 65.5434 125.165C66.7925 125.165 67.9375 124.531 68.51 123.49L85.7373 93.3861C86.9864 93.5 88.2355 93.565 89.5193 93.565C90.699 93.565 91.8441 93.5162 92.9891 93.4186L110.563 123.555C111.171 124.58 112.298 125.198 113.513 125.198C113.599 125.198 113.686 125.198 113.773 125.198C115.109 125.1 116.236 124.287 116.687 123.116L122.465 107.991L139.362 111.618C140.646 111.91 141.999 111.439 142.797 110.447C143.595 109.438 143.699 108.121 143.075 107.031ZM66.1333 114.285L61.9002 103.193C61.3277 101.681 59.6449 100.802 57.9794 101.193L45.471 103.892L59.7143 79.4807C64.4158 85.4332 71.0777 89.9219 78.7978 92.1175L66.1333 114.285ZM59.2458 58.8095C59.2458 43.1476 72.8299 30.3968 89.502 30.3968C106.174 30.3968 119.758 43.1476 119.758 58.8095C119.758 74.4877 106.191 87.2222 89.502 87.2222C72.8125 87.2222 59.2458 74.4714 59.2458 58.8095ZM121.059 101.193C119.394 100.835 117.711 101.697 117.138 103.193L112.871 114.35L99.9112 92.1663C107.84 89.987 114.675 85.3844 119.429 79.253L133.602 103.876L121.059 101.193Z" fill="black"/>
<path d="M140.021 0H29.9959C13.4279 0 0 12.6044 0 28.1199V121.88C0 137.412 13.4279 150 29.9959 150H140.004C156.572 150 170 137.412 170 121.88V28.1199C170.017 12.6044 156.589 0 140.021 0ZM159.972 120.416C159.972 131.508 151.02 140.486 139.189 140.486H31.4532C19.6214 140.486 10.0449 131.492 10.0449 120.416V29.4535C10.0449 18.3617 19.6214 9.38415 31.4532 9.38415H139.189C151.02 9.38415 159.972 18.378 159.972 29.4535V120.416Z" fill="black"/>
</mask>
<g mask="url(#mask0_259_84)">
<rect width="170" height="150" fill="#FF5F1F"/>
</g>
</svg>
