<svg width="170" height="150" viewBox="0 0 170 150" fill="none" xmlns="http://www.w3.org/2000/svg">
<mask id="mask0_260_171" style="mask-type:alpha" maskUnits="userSpaceOnUse" x="0" y="0" width="170" height="150">
<path d="M85 1.5C38.998 1.5 1.69995 34.41 1.69995 75C1.69995 115.59 38.998 148.5 85 148.5C131.002 148.5 168.3 115.59 168.3 75C168.3 34.41 131.002 1.5 85 1.5ZM84.677 116.955C78.472 116.955 74.2559 112.92 74.2559 107.55C74.2559 102.075 78.591 98.145 84.677 98.145C91.001 98.145 95.0979 102.075 95.2169 107.55C95.1999 112.92 91.001 116.955 84.677 116.955ZM101.286 72C96.05 77.115 94.044 82.005 94.044 87.615V88.005C94.044 90.705 91.5619 92.895 88.5019 92.895H80.699C77.673 92.895 75.225 90.75 75.157 88.11L75.123 86.415C74.698 80.04 77.095 73.65 83.47 66.9C88.009 62.145 91.681 58.2 91.681 53.955C91.681 49.575 88.434 46.74 81.345 46.485C78.557 46.485 75.4119 47.025 72.5559 47.925C71.1279 48.375 69.5639 48.3 68.2209 47.715C66.8779 47.115 65.841 46.065 65.399 44.79L63.92 40.635C63.053 38.205 64.464 35.595 67.133 34.65C72.131 32.88 78.71 31.5 86.1559 31.5C104.856 31.5 113.339 40.62 113.339 51C113.356 60.495 106.692 66.75 101.286 72Z" fill="black"/>
</mask>
<g mask="url(#mask0_260_171)">
<rect x="-5" width="186" height="155" fill="#FF5F1F"/>
</g>
</svg>
