<svg width="170" height="150" viewBox="0 0 170 150" fill="none" xmlns="http://www.w3.org/2000/svg">
<mask id="mask0_260_137" style="mask-type:alpha" maskUnits="userSpaceOnUse" x="0" y="0" width="170" height="150">
<path d="M142.222 1.5H27.7779C18.5469 1.5 11.1689 7.605 11.1689 15.345V113.07C11.1689 120.81 18.5469 127.725 27.7779 127.725H60.5369L84.9999 148.5L109.463 127.74H142.222C151.453 127.74 158.831 120.81 158.831 113.085V15.345C158.831 7.605 151.453 1.5 142.222 1.5ZM84.9999 19.5C97.0019 19.5 110.5 32.315 110.5 42.5C110.5 53.09 98.002 65 86 65C73.998 65 60.5369 52.685 60.5369 42.5C60.5369 32.315 72.9979 19.5 84.9999 19.5ZM135.762 110.5H34.2379V93.12C34.2379 79.275 68.3909 71.535 84.9999 71.535C101.609 71.535 135.762 79.275 135.762 93.12V110.5Z" fill="black"/>
</mask>
<g mask="url(#mask0_260_137)">
<rect y="-2" width="170" height="152" fill="#FF5F1F"/>
</g>
</svg>
