<svg width="170" height="150" viewBox="0 0 170 150" fill="none" xmlns="http://www.w3.org/2000/svg">
<path d="M135.259 0.945049C136.508 1.79587 139.459 6.69671 152.853 30.2561C161.707 45.8117 169.235 59.3653 169.613 60.4661C170.257 62.3168 170.219 63.2181 168.554 91.5774C167.646 107.633 166.699 121.588 166.472 122.59C166.206 123.79 165.565 124.991 164.694 125.842L163.332 127.243L155.878 127.392L148.424 127.541L147.933 129.642C147.062 133.694 144.755 138.696 142.41 141.746C138.286 147.149 133.519 149.7 127.503 149.7C121.715 149.7 116.833 147.048 112.672 141.496C110.061 138.045 107.754 132.743 107.223 129.142L106.996 127.491H81.7228H56.4498L56.1844 129.092C55.6172 132.743 53.1955 138.194 50.6611 141.547C46.8777 146.599 40.8618 150 35.7548 150C30.6097 150 24.5555 146.549 20.7721 141.496C18.1996 138.045 15.7779 132.594 15.2853 129.19L15.058 127.489H9.87471C3.51874 127.489 1.89159 126.739 0.757096 123.388C0.0389272 121.288 0.000753493 119.586 0.000753493 63.8648C0.000753493 0.341908 -0.111992 3.69245 2.42241 1.29133L3.59507 0.190535L68.6709 0.0414684C133.443 -0.0571448 133.747 -0.0571358 135.259 0.945049ZM10.9728 63.7181V112.986H13.3181H15.7016L16.9888 109.335C18.5777 104.934 22.5502 99.4802 25.9173 97.1296C34.204 91.4261 44.0016 93.4282 50.5865 102.232C52.5155 104.833 53.6518 106.934 54.559 109.436L55.808 112.988H81.7245L107.641 112.937L108.739 109.686C110.29 105.133 114.188 99.6821 117.555 97.3314C125.991 91.4788 135.637 93.2791 142.221 101.881C143.961 104.182 145.248 106.434 146.269 109.085L147.746 112.986H152.173H156.636V111.584C156.636 110.835 157.242 100.18 157.96 87.8255L159.283 65.4679L144.831 39.9592L130.341 14.4505H70.6762H10.9728V63.7181ZM124.591 108.736C122.131 109.686 119.331 112.988 118.197 116.24C115.737 123.193 118.537 132.245 123.909 134.646C133.179 138.848 141.352 126.243 136.583 115.139C135.259 112.089 133.443 110.137 130.794 108.936C128.374 107.784 127.049 107.784 124.591 108.736ZM31.6678 109.236C28.1117 111.185 25.7282 115.738 25.4246 121.04C25.2737 124.191 25.3483 124.792 26.4845 127.791C28.3771 132.844 31.4406 135.394 35.7548 135.444C41.0144 135.545 45.516 130.193 46.0451 123.239C46.5742 116.536 43.1689 110.234 38.0238 108.433C36.5111 107.885 33.3331 108.284 31.6678 109.236Z" fill="#FF5F1F"/>
<path d="M131.174 39.5097C135.297 46.6626 138.703 52.8637 138.779 53.2651C138.892 53.8659 136.584 53.9645 123.758 53.9645H108.586V40.2091V26.4538H116.153H123.682L131.174 39.5097Z" fill="#FF5F1F"/>
</svg>
